<svg xmlns="http://www.w3.org/2000/svg" width="16px" height="16px" viewBox="0 0 24 24"><path d="m 20.505577,1.6542751 c 1.11,0 2,0.89 2,2 V 14.654276 c 0,1.11 -0.89,2 -2,2 H 9.5055762 c -1.11,0 -2,-0.89 -2,-2 v -3 h 2 v 3 H 20.505577 V 3.6542751 H 9.5055762 v 2 h -2 v -2 c 0,-1.11 0.89,-2 2,-2 m 5.0000008,6 c 1.11,0 2,0.89 2,2 v 3.0000009 h -2 V 9.6542751 H 3.5055762 V 20.654276 H 14.505577 v -2 h 2 v 2 c 0,1.11 -0.89,2 -2,2 H 3.5055762 c -1.11,0 -2,-0.89 -2,-2 V 9.6542751 c 0,-1.11 0.89,-2 2,-2 H 14.505577" fill="#4DA1C0"/></svg>